<?xml version="1.0" standalone="no"?>
<!DOCTYPE svg PUBLIC "-//W3C//DTD SVG 20010904//EN"
 "http://www.w3.org/TR/2001/REC-SVG-20010904/DTD/svg10.dtd">
<svg version="1.0" xmlns="http://www.w3.org/2000/svg"
 width="58.000000pt" height="39.000000pt" viewBox="0 0 58.000000 39.000000"
 preserveAspectRatio="xMidYMid meet">

<g transform="translate(0.000000,39.000000) scale(0.100000,-0.100000)"
fill="#000000" stroke="none">
<path d="M96 264 c-9 -23 -8 -24 14 -24 11 0 20 2 20 4 0 12 -13 36 -20 36 -4
0 -11 -7 -14 -16z"/>
<path d="M141 253 c0 -25 1 -26 9 -8 12 27 12 35 0 35 -5 0 -10 -12 -9 -27z"/>
<path d="M186 264 c-3 -8 -10 -12 -16 -9 -5 3 -10 2 -10 -4 0 -18 18 -21 25
-3 7 16 8 15 15 -3 8 -18 9 -17 9 8 1 29 -13 37 -23 11z"/>
<path d="M220 255 c0 -17 5 -25 18 -25 14 0 15 2 2 10 -13 9 -13 10 0 10 12 0
13 2 1 9 -11 7 -11 9 0 14 10 4 9 6 -3 6 -13 1 -18 -7 -18 -24z"/>
<path d="M271 253 c2 -25 2 -26 6 -5 3 16 10 22 19 18 9 -3 12 -1 9 4 -13 21
-35 10 -34 -17z"/>
<path d="M322 255 c0 -16 2 -22 5 -12 2 9 2 23 0 30 -3 6 -5 -1 -5 -18z"/>
<path d="M343 265 c-8 -22 2 -29 47 -30 30 -1 40 3 40 14 1 14 3 13 14 -1 19
-25 26 -22 25 10 0 24 -1 25 -9 7 -7 -18 -8 -19 -15 -2 -10 24 -25 21 -26 -5
0 -13 -3 -18 -5 -11 -4 9 -13 9 -30 2 -33 -12 -34 -12 -34 5 0 8 6 17 13 19 9
4 9 6 -1 6 -7 1 -15 -6 -19 -14z"/>
<path d="M380 269 c0 -5 5 -7 10 -4 6 3 10 8 10 11 0 2 -4 4 -10 4 -5 0 -10
-5 -10 -11z"/>
<path d="M198 182 c13 -4 23 -11 23 -17 0 -5 -10 -13 -23 -17 -23 -6 -23 -6
-1 -7 12 -1 25 4 28 9 5 8 12 7 22 -1 12 -10 16 -10 23 1 5 8 7 17 4 21 -2 4
4 10 13 12 12 3 8 5 -9 6 -15 0 -30 -4 -34 -10 -4 -8 -9 -8 -17 0 -6 6 -20 11
-31 10 -19 -1 -19 -2 2 -7z m62 -18 c0 -8 -5 -12 -10 -9 -6 4 -8 11 -5 16 9
14 15 11 15 -7z"/>
<path d="M333 184 c9 -3 15 -9 13 -13 -3 -4 0 -13 5 -21 7 -11 8 -8 6 10 -3
16 -11 26 -23 27 -16 2 -16 1 -1 -3z"/>
<path d="M370 165 c0 -17 5 -25 18 -25 14 0 15 2 2 10 -13 9 -13 10 0 10 12 0
13 2 1 9 -11 7 -11 9 0 14 10 4 9 6 -3 6 -13 1 -18 -7 -18 -24z"/>
<path d="M428 183 c7 -3 16 -2 19 1 4 3 -2 6 -13 5 -11 0 -14 -3 -6 -6z"/>
<path d="M465 180 c-3 -6 2 -13 11 -17 16 -6 16 -7 -2 -15 -19 -8 -19 -8 0 -5
25 3 33 27 9 28 -16 0 -16 1 2 9 16 7 17 9 3 9 -9 1 -20 -4 -23 -9z"/>
<path d="M188 163 c7 -3 16 -2 19 1 4 3 -2 6 -13 5 -11 0 -14 -3 -6 -6z"/>
<path d="M429 161 c11 -7 11 -9 0 -14 -10 -4 -9 -6 4 -6 9 -1 17 6 17 14 0 8
-8 15 -17 15 -14 0 -15 -2 -4 -9z"/>
</g>
</svg>
