<?xml version="1.0" standalone="no"?>
<!DOCTYPE svg PUBLIC "-//W3C//DTD SVG 20010904//EN"
 "http://www.w3.org/TR/2001/REC-SVG-20010904/DTD/svg10.dtd">
<svg version="1.0" xmlns="http://www.w3.org/2000/svg"
 width="58.000000pt" height="39.000000pt" viewBox="0 0 58.000000 39.000000"
 preserveAspectRatio="xMidYMid meet">

<g transform="translate(0.000000,39.000000) scale(0.100000,-0.100000)"
fill="#000000" stroke="none">
<path d="M87 323 c-11 -11 -8 -193 3 -193 6 0 10 40 10 100 0 100 -1 106 -13
93z"/>
<path d="M111 238 c1 -65 4 -84 9 -63 12 45 12 155 0 155 -6 0 -10 -37 -9 -92z"/>
<path d="M150 270 c0 -33 4 -60 10 -60 6 0 10 27 10 60 0 33 -4 60 -10 60 -6
0 -10 -27 -10 -60z"/>
<path d="M180 266 c0 -37 4 -66 10 -66 6 0 10 26 10 59 0 33 -4 63 -10 66 -6
4 -10 -18 -10 -59z"/>
<path d="M210 260 c0 -40 4 -70 10 -70 6 0 10 30 10 70 0 40 -4 70 -10 70 -6
0 -10 -30 -10 -70z"/>
<path d="M253 260 c0 -41 2 -58 4 -37 2 20 2 54 0 75 -2 20 -4 3 -4 -38z"/>
<path d="M300 260 c0 -40 4 -70 10 -70 6 0 10 30 10 70 0 40 -4 70 -10 70 -6
0 -10 -30 -10 -70z"/>
<path d="M350 259 c0 -44 4 -68 10 -64 6 3 10 35 10 71 0 36 -4 64 -10 64 -6
0 -10 -30 -10 -71z"/>
<path d="M383 314 c-2 -6 -3 -36 -1 -65 3 -47 6 -54 26 -57 21 -3 22 0 22 67
0 65 -1 70 -21 68 -12 -1 -23 -7 -26 -13z"/>
<path d="M464 240 c0 -52 1 -74 3 -47 2 26 2 68 0 95 -2 26 -3 4 -3 -48z"/>
<path d="M264 166 c-9 -52 1 -67 13 -18 6 23 7 44 2 47 -4 3 -11 -10 -15 -29z"/>
<path d="M135 163 c-4 -15 -8 -34 -11 -40 -2 -8 6 -13 21 -13 28 0 32 5 36 45
3 25 0 31 -18 33 -17 3 -24 -3 -28 -25z m35 7 c0 -5 -4 -10 -10 -10 -5 0 -10
5 -10 10 0 6 5 10 10 10 6 0 10 -4 10 -10z m-10 -30 c0 -5 -5 -10 -11 -10 -5
0 -7 5 -4 10 3 6 8 10 11 10 2 0 4 -4 4 -10z"/>
<path d="M358 173 c-8 -18 -2 -57 8 -60 7 -2 10 6 7 22 -3 15 -1 25 6 25 7 0
9 5 6 10 -7 12 -22 13 -27 3z"/>
<path d="M195 150 c-9 -29 10 -48 33 -34 24 16 22 48 -5 52 -15 2 -23 -3 -28
-18z m26 -23 c-8 -8 -11 -7 -11 4 0 9 3 19 7 23 4 4 9 2 11 -4 3 -7 -1 -17 -7
-23z"/>
<path d="M294 155 c-9 -22 3 -45 23 -44 11 0 13 3 6 6 -18 7 -16 23 2 23 8 0
15 7 15 15 0 8 -9 15 -20 15 -11 0 -23 -7 -26 -15z"/>
<path d="M407 163 c-13 -12 -7 -53 7 -53 20 0 39 27 32 45 -6 15 -28 20 -39 8z
m19 -30 c-10 -10 -19 5 -10 18 6 11 8 11 12 0 2 -7 1 -15 -2 -18z"/>
</g>
</svg>
