<?xml version="1.0" standalone="no"?>
<!DOCTYPE svg PUBLIC "-//W3C//DTD SVG 20010904//EN"
 "http://www.w3.org/TR/2001/REC-SVG-20010904/DTD/svg10.dtd">
<svg version="1.0" xmlns="http://www.w3.org/2000/svg"
 width="58.000000pt" height="39.000000pt" viewBox="0 0 58.000000 39.000000"
 preserveAspectRatio="xMidYMid meet">

<g transform="translate(0.000000,39.000000) scale(0.100000,-0.100000)"
fill="#000000" stroke="none">
<path d="M270 241 c0 -71 2 -82 22 -95 17 -12 24 -13 30 -3 4 7 1 17 -7 23
-11 8 -15 31 -15 83 0 56 -3 71 -15 71 -12 0 -15 -15 -15 -79z"/>
<path d="M131 254 c-22 -28 -28 -69 -11 -79 11 -7 140 46 140 58 0 4 -9 16
-20 27 -30 30 -83 27 -109 -6z m79 -13 c0 -11 -59 -36 -67 -28 -3 4 0 13 7 22
13 16 60 21 60 6z"/>
<path d="M347 243 c-10 -10 -8 -56 3 -73 11 -17 11 -18 13 38 2 40 -2 49 -16
35z"/>
<path d="M442 179 c-7 -10 -21 -19 -32 -19 -11 0 -20 -7 -20 -15 0 -17 9 -19
44 -5 31 11 52 46 33 53 -8 3 -19 -4 -25 -14z"/>
<path d="M153 158 c-8 -14 8 -28 31 -28 23 0 69 28 51 31 -28 5 -77 3 -82 -3z"/>
</g>
</svg>
