<?xml version="1.0" standalone="no"?>
<!DOCTYPE svg PUBLIC "-//W3C//DTD SVG 20010904//EN"
 "http://www.w3.org/TR/2001/REC-SVG-20010904/DTD/svg10.dtd">
<svg version="1.0" xmlns="http://www.w3.org/2000/svg"
 width="121.000000pt" height="39.000000pt" viewBox="0 0 121.000000 39.000000"
 preserveAspectRatio="xMidYMid meet">

<g transform="translate(0.000000,39.000000) scale(0.100000,-0.100000)"
fill="#000000" stroke="none">
<path d="M192 314 c-18 -20 -8 -44 18 -44 17 0 21 5 18 27 -4 31 -18 38 -36
17z"/>
<path d="M320 185 c-23 -25 -22 -63 2 -92 16 -19 24 -16 63 24 49 51 47 65
-14 83 -24 7 -33 4 -51 -15z"/>
<path d="M550 165 c-13 -16 -8 -36 22 -77 7 -9 9 -21 5 -25 -5 -4 -12 -1 -17
7 -5 8 -12 11 -16 7 -12 -11 12 -29 32 -25 27 5 29 41 4 63 -28 25 -27 48 2
39 20 -6 21 -5 9 10 -17 20 -25 20 -41 1z"/>
<path d="M620 115 c0 -63 1 -65 25 -65 14 0 25 5 25 10 0 6 -7 10 -15 10 -18
0 -20 26 -2 34 10 5 10 7 0 12 -18 8 -16 44 2 44 8 0 15 5 15 10 0 6 -11 10
-25 10 -24 0 -25 -2 -25 -65z"/>
<path d="M702 171 c-9 -5 -12 -25 -10 -62 3 -47 6 -54 26 -57 22 -3 42 22 27
36 -4 4 -10 1 -12 -5 -10 -28 -23 -10 -23 32 0 25 5 45 10 45 6 0 10 -7 10
-15 0 -8 5 -15 10 -15 14 0 13 23 -2 38 -14 14 -19 15 -36 3z"/>
<path d="M771 113 c1 -38 3 -59 6 -48 8 33 20 38 27 11 11 -44 22 -29 21 30
-1 37 -6 59 -16 65 -32 20 -39 10 -38 -58z m35 11 c-5 -13 -10 -14 -18 -6 -6
6 -8 18 -4 28 5 13 10 14 18 6 6 -6 8 -18 4 -28z"/>
<path d="M850 115 c0 -63 1 -65 25 -65 14 0 25 5 25 10 0 6 -7 10 -15 10 -18
0 -20 26 -2 34 10 5 10 7 0 12 -18 8 -16 44 2 44 8 0 15 5 15 10 0 6 -11 10
-25 10 -24 0 -25 -2 -25 -65z"/>
<path d="M920 171 c0 -6 5 -13 10 -16 6 -3 10 -28 10 -56 0 -27 5 -49 10 -49
6 0 10 25 10 55 0 32 4 55 11 55 5 0 7 5 4 10 -8 13 -55 13 -55 1z"/>
<path d="M997 173 c-3 -5 -8 -34 -12 -65 -5 -40 -4 -58 4 -58 6 0 11 7 11 15
0 8 5 15 10 15 6 0 10 -7 10 -15 0 -8 5 -15 11 -15 11 0 6 66 -7 113 -6 18
-19 23 -27 10z m18 -63 c3 -5 1 -10 -4 -10 -6 0 -11 5 -11 10 0 6 2 10 4 10 3
0 8 -4 11 -10z"/>
</g>
</svg>
