<?xml version="1.0" standalone="no"?>
<!DOCTYPE svg PUBLIC "-//W3C//DTD SVG 20010904//EN"
 "http://www.w3.org/TR/2001/REC-SVG-20010904/DTD/svg10.dtd">
<svg version="1.0" xmlns="http://www.w3.org/2000/svg"
 width="58.000000pt" height="39.000000pt" viewBox="0 0 58.000000 39.000000"
 preserveAspectRatio="xMidYMid meet">

<g transform="translate(0.000000,39.000000) scale(0.100000,-0.100000)"
fill="#000000" stroke="none">
<path d="M193 233 c-14 -35 -16 -36 -24 -17 -15 41 -27 35 -17 -7 14 -53 35
-48 59 14 22 56 6 65 -18 10z"/>
<path d="M246 258 c-12 -38 -16 -88 -7 -88 10 0 14 12 26 72 4 21 -13 35 -19
16z"/>
<path d="M294 256 c-19 -14 -19 -15 4 -39 24 -25 17 -42 -12 -31 -9 3 -16 1
-16 -6 0 -7 13 -10 32 -8 37 3 51 35 24 50 -22 13 -20 28 5 28 11 0 17 5 14
10 -9 14 -28 12 -51 -4z"/>
<path d="M371 224 c-12 -25 -21 -47 -21 -48 0 0 19 -1 43 -1 l44 0 -12 44 c-6
25 -16 46 -22 48 -6 2 -21 -17 -32 -43z m39 -9 c0 -8 -7 -15 -15 -15 -9 0 -12
6 -9 15 4 8 10 15 15 15 5 0 9 -7 9 -15z"/>
</g>
</svg>
